<svg width="129" height="65" viewBox="0 0 129 65" fill="none" xmlns="http://www.w3.org/2000/svg">
<path d="M19.7939 48.55H45.8939L47.3939 52H21.2439L19.7939 48.55ZM1.89395 48.55H15.9939L17.4439 52H0.443945L1.89395 48.55ZM16.4439 13.35H30.6939L32.1939 16.8H14.9939L16.4439 13.35ZM13.9939 19.2H33.1939L34.6939 22.7H12.5939L13.9939 19.2ZM10.7939 27.1L11.5939 25.1H35.7939L37.2439 28.5H11.3939L10.7939 27.1ZM12.4439 30.95H38.2939L39.7939 34.4H13.8939L12.4439 30.95ZM8.94395 31.5L10.1939 34.4H7.74395L8.94395 31.5ZM6.74395 36.8H40.7939L42.2939 40.25H16.3439L16.0939 39.55H12.2939L12.5939 40.25H5.29395L6.74395 36.8ZM17.3939 42.7H43.3939L44.8439 46.1H18.7939L17.3939 42.7ZM4.29395 42.7H13.5939L14.9939 46.1H2.89395L4.29395 42.7Z" fill="#56F8BD"/>
<path d="M66.9853 49.93H80.9053V52H66.9853V49.93ZM51.2653 49.93H64.9453V52H51.2653V49.93ZM66.9853 28.81H77.7253C78.6653 29.23 79.4253 29.92 80.0053 30.88H66.9853V28.81ZM51.2653 28.81H64.9453V30.88H51.2653V28.81ZM66.9853 32.32H80.5153C80.6353 33.44 80.6853 34.14 80.6653 34.42H66.9853V32.32ZM51.2653 32.32H64.9453V34.42H51.2653V32.32ZM66.9853 35.86H80.4253C80.2053 36.62 79.8653 37.3 79.4053 37.9H66.9853V35.86ZM51.2653 35.86H64.9453V37.9H51.2653V35.86ZM66.9853 39.37H77.6653C76.8253 39.79 76.4053 39.98 76.4053 39.94V40C77.4853 40.34 78.3753 40.82 79.0753 41.44H66.9853V39.37ZM51.2653 39.37H64.9453V41.44H51.2653V39.37ZM66.9853 42.88H80.1853C80.4653 43.46 80.6653 44.15 80.7853 44.95H66.9853V42.88ZM51.2653 42.88H64.9453V44.95H51.2653V42.88ZM66.9853 46.42H80.9053V48.46H66.9853V46.42ZM51.2653 46.42H64.9453V48.46H51.2653V46.42ZM84.4893 49.93H98.1993V52H84.4893V49.93ZM84.4893 28.81H98.1993V30.88H84.4893V28.81ZM84.4893 32.32H98.1993V34.42H84.4893V32.32ZM84.4893 35.86H98.1993V37.9H84.4893V35.86ZM84.4893 39.37H98.1993V41.44H84.4893V39.37ZM84.4893 42.88H98.1993V44.95H84.4893V42.88ZM84.4893 46.42H98.1993V48.46H84.4893V46.42ZM111.847 49.93H127.507L128.407 52H112.717L111.847 49.93ZM101.107 49.93H109.567L110.437 52H100.237L101.107 49.93ZM109.837 28.81H118.387L119.287 30.88H108.967L109.837 28.81ZM108.367 32.32H119.887L120.787 34.42H107.527L108.367 32.32ZM106.447 37.06L106.927 35.86H121.447L122.317 37.9H106.807L106.447 37.06ZM107.437 39.37H122.947L123.847 41.44H108.307L107.437 39.37ZM105.337 39.7L106.087 41.44H104.617L105.337 39.7ZM104.017 42.88H124.447L125.347 44.95H109.777L109.627 44.53H107.347L107.527 44.95H103.147L104.017 42.88ZM110.407 46.42H126.007L126.877 48.46H111.247L110.407 46.42ZM102.547 46.42H108.127L108.967 48.46H101.707L102.547 46.42Z" fill="#56F8BD"/>
</svg>
