<svg width="1077" height="290" viewBox="0 0 1077 290" fill="none" xmlns="http://www.w3.org/2000/svg">
<path d="M42.75 285.5V283.25H40.5V281H38.25V276.5H42.75V278.75H45V281H54V278.75H56.25V274.25H54V272H42.75V269.75H40.5V267.5H38.25V258.5H40.5V256.25H42.75V254H56.25V256.25H58.5V258.5H60.75V263H56.25V260.75H54V258.5H45V260.75H42.75V265.25H45V267.5H56.25V269.75H58.5V272H60.75V281H58.5V283.25H56.25V285.5H42.75ZM86.58 281V278.75H88.83V267.5H86.58V265.25H77.58V267.5H75.33V278.75H77.58V281H86.58ZM75.33 285.5V283.25H73.08V281H70.83V265.25H73.08V263H75.33V260.75H88.83V263H91.08V265.25H93.33V281H91.08V283.25H88.83V285.5H75.33ZM107.91 285.5V283.25H105.66V281H103.41V265.25H105.66V263H107.91V260.75H121.41V263H123.66V265.25H125.91V269.75H121.41V267.5H119.16V265.25H110.16V267.5H107.91V278.75H110.16V281H119.16V278.75H121.41V276.5H125.91V281H123.66V283.25H121.41V285.5H107.91ZM140.49 285.5V281H144.99V265.25H140.49V260.75H149.49V281H153.99V285.5H140.49ZM144.99 258.5V254H149.49V258.5H144.99ZM184.32 281V278.75H186.57V267.5H184.32V265.25H175.32V267.5H173.07V278.75H175.32V281H184.32ZM173.07 285.5V283.25H170.82V281H168.57V265.25H170.82V263H173.07V260.75H184.32V263H186.57V260.75H191.07V285.5H186.57V283.25H184.32V285.5H173.07ZM205.65 285.5V281H210.15V258.5H205.65V254H214.65V281H219.15V285.5H205.65ZM266.31 285.5V260.75H270.81V263H273.06V260.75H284.31V263H286.56V265.25H288.81V285.5H284.31V267.5H282.06V265.25H273.06V267.5H270.81V285.5H266.31ZM316.89 272V267.5H314.64V265.25H305.64V267.5H303.39V272H316.89ZM303.39 285.5V283.25H301.14V281H298.89V265.25H301.14V263H303.39V260.75H316.89V263H319.14V265.25H321.39V276.5H303.39V278.75H305.64V281H321.39V285.5H303.39ZM340.47 285.5V283.25H338.22V281H335.97V265.25H331.47V260.75H335.97V254H340.47V260.75H347.22V265.25H340.47V278.75H342.72V281H347.22V278.75H349.47V276.5H353.97V281H351.72V283.25H349.47V285.5H340.47ZM368.55 285.5V283.25H366.3V281H364.05V260.75H368.55V278.75H373.05V267.5H377.55V278.75H382.05V260.75H386.55V281H384.3V283.25H382.05V285.5H377.55V283.25H373.05V285.5H368.55ZM412.38 281V278.75H414.63V267.5H412.38V265.25H403.38V267.5H401.13V278.75H403.38V281H412.38ZM401.13 285.5V283.25H398.88V281H396.63V265.25H398.88V263H401.13V260.75H414.63V263H416.88V265.25H419.13V281H416.88V283.25H414.63V285.5H401.13ZM429.21 285.5V260.75H433.71V263H435.96V260.75H447.21V263H449.46V265.25H451.71V272H447.21V267.5H444.96V265.25H435.96V267.5H433.71V285.5H429.21ZM461.79 285.5V254H466.29V274.25H468.54V272H470.79V269.75H473.04V267.5H475.29V265.25H477.54V263H479.79V260.75H484.29V265.25H482.04V267.5H479.79V269.75H477.54V272H475.29V274.25H477.54V276.5H479.79V278.75H482.04V281H484.29V285.5H479.79V283.25H477.54V281H475.29V278.75H473.04V276.5H470.79V278.75H468.54V281H466.29V285.5H461.79ZM542.7 281V278.75H544.95V267.5H542.7V265.25H533.7V267.5H531.45V278.75H533.7V281H542.7ZM531.45 285.5V283.25H529.2V281H526.95V265.25H529.2V263H531.45V260.75H544.95V263H547.2V265.25H549.45V281H547.2V283.25H544.95V285.5H531.45ZM561.78 285.5V272H559.53V267.5H561.78V258.5H564.03V256.25H566.28V254H577.53V256.25H579.78V258.5H582.03V263H577.53V260.75H575.28V258.5H568.53V260.75H566.28V267.5H575.28V272H566.28V285.5H561.78ZM633.69 285.5V283.25H631.44V281H629.19V265.25H624.69V260.75H629.19V254H633.69V260.75H640.44V265.25H633.69V278.75H635.94V281H640.44V278.75H642.69V276.5H647.19V281H644.94V283.25H642.69V285.5H633.69ZM657.27 285.5V254H661.77V263H664.02V260.75H675.27V263H677.52V265.25H679.77V285.5H675.27V267.5H673.02V265.25H664.02V267.5H661.77V285.5H657.27ZM707.85 272V267.5H705.6V265.25H696.6V267.5H694.35V272H707.85ZM694.35 285.5V283.25H692.1V281H689.85V265.25H692.1V263H694.35V260.75H707.85V263H710.1V265.25H712.35V276.5H694.35V278.75H696.6V281H712.35V285.5H694.35ZM755.01 285.5V260.75H759.51V263H761.76V260.75H773.01V263H775.26V265.25H777.51V285.5H773.01V267.5H770.76V265.25H761.76V267.5H759.51V285.5H755.01ZM805.59 272V267.5H803.34V265.25H794.34V267.5H792.09V272H805.59ZM792.09 285.5V283.25H789.84V281H787.59V265.25H789.84V263H792.09V260.75H805.59V263H807.84V265.25H810.09V276.5H792.09V278.75H794.34V281H810.09V285.5H792.09ZM824.67 285.5V283.25H822.42V281H820.17V260.75H824.67V278.75H829.17V267.5H833.67V278.75H838.17V260.75H842.67V281H840.42V283.25H838.17V285.5H833.67V283.25H829.17V285.5H824.67ZM889.83 285.5V283.25H887.58V281H885.33V260.75H889.83V278.75H894.33V267.5H898.83V278.75H903.33V260.75H907.83V281H905.58V283.25H903.33V285.5H898.83V283.25H894.33V285.5H889.83ZM933.66 281V278.75H935.91V267.5H933.66V265.25H924.66V267.5H922.41V278.75H924.66V281H933.66ZM922.41 285.5V283.25H920.16V281H917.91V265.25H920.16V263H922.41V260.75H935.91V263H938.16V265.25H940.41V281H938.16V283.25H935.91V285.5H922.41ZM950.49 285.5V260.75H954.99V263H957.24V260.75H968.49V263H970.74V265.25H972.99V272H968.49V267.5H966.24V265.25H957.24V267.5H954.99V285.5H950.49ZM987.57 285.5V281H992.07V258.5H987.57V254H996.57V281H1001.07V285.5H987.57ZM1031.4 281V278.75H1033.65V267.5H1031.4V265.25H1022.4V267.5H1020.15V278.75H1022.4V281H1031.4ZM1020.15 285.5V283.25H1017.9V281H1015.65V265.25H1017.9V263H1020.15V260.75H1031.4V263H1033.65V254H1038.15V285.5H1033.65V283.25H1031.4V285.5H1020.15Z" fill="#56F8BD"/>
<path d="M145.395 200.68H291.555L299.955 220H153.515L145.395 200.68ZM45.1553 200.68H124.115L132.235 220H37.0353L45.1553 200.68ZM126.635 3.55998H206.435L214.835 22.88H118.515L126.635 3.55998ZM112.915 36.32H220.435L228.835 55.92H105.075L112.915 36.32ZM94.9953 80.56L99.4753 69.36H234.995L243.115 88.4H98.3553L94.9953 80.56ZM104.235 102.12H248.995L257.395 121.44H112.355L104.235 102.12ZM84.6353 105.2L91.6353 121.44H77.9153L84.6353 105.2ZM72.3153 134.88H262.995L271.395 154.2H126.075L124.675 150.28H103.395L105.075 154.2H64.1953L72.3153 134.88ZM131.955 167.92H277.555L285.675 186.96H139.795L131.955 167.92ZM58.5953 167.92H110.675L118.515 186.96H50.7553L58.5953 167.92ZM465.783 200.68H595.703V220H465.783V200.68ZM319.063 200.68H446.743V220H319.063V200.68ZM465.783 3.55998H566.023C574.796 7.47999 581.89 13.92 587.303 22.88H465.783V3.55998ZM319.063 3.55998H446.743V22.88H319.063V3.55998ZM465.783 36.32H592.063C593.183 46.7733 593.65 53.3067 593.463 55.92H465.783V36.32ZM319.063 36.32H446.743V55.92H319.063V36.32ZM465.783 69.36H591.223C589.17 76.4533 585.996 82.8 581.703 88.4H465.783V69.36ZM319.063 69.36H446.743V88.4H319.063V69.36ZM465.783 102.12H565.463C557.623 106.04 553.703 107.813 553.703 107.44V108C563.783 111.173 572.09 115.653 578.623 121.44H465.783V102.12ZM319.063 102.12H446.743V121.44H319.063V102.12ZM465.783 134.88H588.983C591.596 140.293 593.463 146.733 594.583 154.2H465.783V134.88ZM319.063 134.88H446.743V154.2H319.063V134.88ZM465.783 167.92H595.703V186.96H465.783V167.92ZM319.063 167.92H446.743V186.96H319.063V167.92ZM629.154 200.68H757.114V220H629.154V200.68ZM629.154 3.55998H757.114V22.88H629.154V3.55998ZM629.154 36.32H757.114V55.92H629.154V36.32ZM629.154 69.36H757.114V88.4H629.154V69.36ZM629.154 102.12H757.114V121.44H629.154V102.12ZM629.154 134.88H757.114V154.2H629.154V134.88ZM629.154 167.92H757.114V186.96H629.154V167.92ZM884.497 200.68H1030.66L1039.06 220H892.617L884.497 200.68ZM784.257 200.68H863.217L871.337 220H776.137L784.257 200.68ZM865.737 3.55998H945.537L953.937 22.88H857.617L865.737 3.55998ZM852.017 36.32H959.537L967.937 55.92H844.177L852.017 36.32ZM834.097 80.56L838.577 69.36H974.097L982.217 88.4H837.457L834.097 80.56ZM843.337 102.12H988.097L996.497 121.44H851.457L843.337 102.12ZM823.737 105.2L830.737 121.44H817.017L823.737 105.2ZM811.417 134.88H1002.1L1010.5 154.2H865.177L863.777 150.28H842.497L844.177 154.2H803.297L811.417 134.88ZM871.057 167.92H1016.66L1024.78 186.96H878.897L871.057 167.92ZM797.697 167.92H849.777L857.617 186.96H789.857L797.697 167.92Z" fill="#56F8BD"/>
</svg>
